# xmcd
#
# Track frame offsets:
#	150
#	27095
#	42154
#	60400
#	86166
#	108589
#	123774
#	145447
#	169510
#	186726
#	201110
#	219277
#	238615
#
# Disc length: 3411 seconds
#
# Revision: 1
# Processed by: cddbd v1.5.2PL0 Copyright (c) Steve Scherf et al.
# Submitted via: audiograbber 1.81.03
#
DISCID=b50d510d
DTITLE=Jenica`Rayne]p[The`Raynemakers - Live Rayne
DYEAR=2007
DGENRE=Blues
TTITLE0=Get Up And Go
TTITLE1=Walking Back In Time
TTITLE2=The`Garden
TTITLE3=Blue Skies Dreaming
TTITLE4=Wrapped Up In Blue
TTITLE5=Abstract Art
TTITLE6=Ghost
TTITLE7=Year After Year
TTITLE8=Will You Help A Stranger
TTITLE9=It's Never Too Late
TTITLE10=The`People's Time
TTITLE11=Call It What You Like
TTITLE12=Faster
EXTD=
EXTT0=
EXTT1=
EXTT2=
EXTT3=
EXTT4=
EXTT5=
EXTT6=
EXTT7=
EXTT8=
EXTT9=
EXTT10=
EXTT11=
EXTT12=
PLAYORDER=
